<svg width="357" height="265" viewBox="0 0 357 265" fill="none" xmlns="http://www.w3.org/2000/svg">
<g clip-path="url(#clip0_10_154)">
<path opacity="0.18" d="M4.95679 220.197C4.95679 220.197 -39.0031 66.0798 135.06 8.97233C285.406 -40.3395 387.529 125.351 348.729 220.197C333.967 256.271 4.95679 220.197 4.95679 220.197Z" fill="#9fc5ed"/>
<path d="M262.958 95.5082C262.98 94.0384 263.98 92.5415 265.38 92.3296C265.516 92.3021 265.656 92.3114 265.787 92.3566C265.891 92.4079 265.981 92.4835 266.052 92.5775C266.836 93.5289 266.524 94.9942 265.982 96.1124C265.483 97.0546 265.049 98.0324 264.682 99.0385C263.569 98.7229 262.945 96.6264 262.958 95.5082Z" fill="#25233A"/>
<path d="M262.906 115.694L254.085 135.857L238.162 132.344L235.506 137.214C235.506 137.214 252.876 144.392 254.808 143.891C256.74 143.391 263.253 137.214 263.253 137.214L262.906 115.694Z" fill="#B7DAFF"/>
<path d="M262.906 115.694L254.085 135.857L238.162 132.344L235.506 137.214C235.506 137.214 252.876 144.392 254.808 143.891C256.74 143.391 263.253 137.214 263.253 137.214L262.906 115.694Z" fill="url(#paint0_linear_10_154)"/>
<path d="M72.9026 95.3324C66.7002 95.3349 60.5977 96.9575 55.1544 100.051C49.7112 103.145 45.1013 107.612 41.7475 113.041C38.3937 118.471 36.4033 124.689 35.9586 131.127C35.514 137.564 36.6294 144.015 39.2026 149.888L41.421 154.194L69.5837 208.817L100.545 159.523L106.611 149.888C109.184 144.015 110.3 137.564 109.855 131.127C109.411 124.689 107.42 118.471 104.066 113.041C100.713 107.612 96.1027 103.145 90.6594 100.051C85.2162 96.9575 79.1136 95.3349 72.9113 95.3324H72.9026ZM72.9026 113.065C76.3439 113.066 79.7076 114.129 82.5685 116.119C85.4294 118.109 87.6589 120.937 88.9753 124.246C90.2916 127.555 90.6355 131.195 89.9637 134.707C89.2918 138.22 87.6342 141.446 85.2006 143.977C82.7669 146.509 79.6665 148.233 76.2913 148.932C72.9161 149.63 69.4177 149.271 66.2385 147.9C63.0592 146.53 60.342 144.209 58.4302 141.231C56.5184 138.254 55.498 134.753 55.498 131.172C55.498 128.794 55.9482 126.439 56.8229 124.242C57.6977 122.045 58.9797 120.048 60.596 118.367C62.2122 116.686 64.1309 115.352 66.2425 114.442C68.3541 113.532 70.6172 113.065 72.9026 113.065Z" fill="#687B90"/>
<path d="M87.1356 211.802H47.0882V219.836H87.1356V211.802Z" fill="#B7DAFF"/>
<path d="M348.738 219.363C343.632 227.753 336.678 234.755 328.452 239.787C292.377 261.6 232.148 247.578 184.215 249.449C152.209 250.703 107.547 279.505 41.6289 255.437C29.8525 251.14 6.19148 225.9 4.96532 219.367L348.738 219.363Z" fill="#B7DAFF"/>
<path d="M348.738 219.363C343.632 227.753 336.678 234.755 328.452 239.787C292.377 261.6 232.148 247.578 184.215 249.449C152.209 250.703 107.547 279.505 41.6289 255.437C29.8525 251.14 6.19148 225.9 4.96532 219.367L348.738 219.363Z" fill="url(#paint1_linear_10_154)"/>
<path opacity="0.18" d="M230.458 222.834L233.664 226.162C233.072 226.239 232.502 226.447 231.995 226.774C231.487 227.101 231.053 227.538 230.722 228.056C230.12 229.124 230.246 230.666 231.186 231.428C232.126 232.19 233.543 231.956 234.748 231.69C253.097 227.582 272.1 229.025 290.865 228.754C294.661 228.7 298.664 228.515 301.888 226.446C302.59 225.995 303.317 225.314 303.265 224.453C303.196 223.33 301.883 222.785 300.804 222.789C297.906 222.789 294.461 224.647 292.46 222.469C291.775 221.721 291.454 220.621 290.623 220.062C289.258 219.16 287.516 220.179 286.108 221.013C279.284 225.03 270.9 224.304 263.101 223.461C261.226 223.321 259.368 222.999 257.551 222.501C255.549 221.883 253.69 220.846 251.715 220.147C247.607 218.7 243.257 218.853 238.994 219.246C237.98 219.313 229.6 221.942 230.458 222.834Z" fill="#1D2741"/>
<path d="M261.446 159.604L269.271 189.244L285.558 212.794L290.661 209.196L279.344 186.111L281.242 162.823L265.198 155.664L261.446 159.604Z" fill="#25233A"/>
<path d="M247.932 209.921L253.643 213.528C253.643 213.528 259.492 192.86 263.539 186.643C272.958 172.183 280.683 162.602 280.683 162.602L267.143 155.758L266.974 155.668L264.305 161.98L253.513 181.458L252.156 187.721L247.932 209.921Z" fill="#3F3D56"/>
<path d="M293.807 187.279L295.228 199.732L271.922 202.635L267.044 202.013L269.119 179.591L270.328 178.162L293.807 187.279Z" fill="#B7DAFF"/>
<path d="M293.807 187.279L295.228 199.732L271.922 202.635L267.044 202.013L269.119 179.591L270.328 178.162L293.807 187.279Z" fill="url(#paint2_linear_10_154)"/>
<path d="M271.701 202.144L270.363 182.644L269.201 180.227L267.707 201.495L271.701 202.144Z" fill="url(#paint3_linear_10_154)"/>
<path d="M285.54 171.728C285.54 171.728 287.52 172.927 287.62 176.404H286.125C286.125 176.404 286.025 173.861 284.877 173.604L285.54 171.728Z" fill="#B7DAFF"/>
<path d="M261.112 162.666L265.012 155.664L269.487 163.752C269.487 163.752 276.935 163.676 281.472 162.729L282.065 162.598C283.829 162.174 285.007 161.593 284.882 160.794C284.765 160.069 284.305 157.85 283.972 154.888C283.583 151.684 283.506 148.446 283.742 145.226C283.95 142.683 285.042 140.099 285.839 137.759C286.245 136.665 286.535 135.528 286.706 134.369C286.89 132.533 287.18 130.709 287.572 128.909C287.93 127.306 288.066 125.659 287.975 124.017C287.884 120.342 287.221 116.352 286.827 115.531C286.433 114.711 282.876 113.002 280.718 112.051C279.743 111.6 279.054 111.334 279.054 111.334H270.389L262.915 115.689C262.915 115.689 261.455 125.158 261.255 127.15C261.056 129.143 263.461 137.218 263.664 139.383C264.154 144.779 261.112 162.666 261.112 162.666Z" fill="#B7DAFF"/>
<path d="M276.051 142.394L280.683 162.598H282.052C283.816 162.174 284.994 161.592 284.869 160.794C284.643 159.397 283.135 152.372 283.725 145.23C284.05 141.353 286.355 137.439 286.714 134.369L281.138 127.872L276.051 142.394Z" fill="url(#paint4_linear_10_154)"/>
<path d="M279.05 111.338L268.651 128.967C268.651 128.967 269.084 115.892 269.747 113.638C270.41 111.383 279.05 111.338 279.05 111.338Z" fill="white"/>
<path d="M276.758 105.22C276.758 105.22 278.123 110.946 279.05 111.338C277.954 112.948 276.296 114.047 274.431 114.4C273.37 114.612 269.084 115.022 269.734 113.62C270.097 112.913 270.317 112.137 270.38 111.338V109.057C270.38 109.057 266.914 110.198 266.545 108.606C266.177 107.014 264.453 104.183 264.782 97.3342C265.111 90.4855 275.211 92.289 276.606 93.3936C278.001 94.4983 279.019 101.09 276.758 105.22Z" fill="url(#paint5_linear_10_154)"/>
<path d="M281.467 162.729L281.142 163.752L285.844 165.655L286.524 165.93C286.524 165.93 294.756 148.666 295.189 146.488C295.622 144.311 292.195 124.846 286.818 115.536C286.331 115.808 285.859 116.109 285.406 116.438C283.521 117.79 280.332 120.572 279.561 124.553L285.83 137.759L287.975 142.268L283.963 154.87L281.467 162.729Z" fill="#B7DAFF"/>
<path d="M281.797 164.018C281.797 164.018 278.352 167.332 278.101 168.076C277.85 168.82 278.101 170.718 278.101 170.718H278.751L278.898 172.792C278.898 172.792 279.197 174.244 279.895 174.19C280.539 174.207 281.178 174.312 281.797 174.501C281.797 174.501 284.232 174.294 284.877 173.622C285.523 172.95 285.874 169.785 285.826 168.906C285.779 168.026 285.826 165.429 285.826 165.429L281.797 164.018Z" fill="url(#paint6_linear_10_154)"/>
<path d="M278.101 170.7C278.101 170.7 276.875 170.596 276.207 173.5C275.54 176.404 275.679 177.441 275.679 177.441H277.473C277.473 177.441 277.906 172.77 278.863 172.287L278.751 170.7H278.101Z" fill="#B7DAFF"/>
<path d="M285.54 171.728C285.54 171.728 287.52 172.927 287.62 176.404H286.125C286.125 176.404 286.025 173.861 284.877 173.604L285.54 171.728Z" fill="url(#paint7_linear_10_154)"/>
<path d="M278.101 170.7C278.101 170.7 276.875 170.596 276.207 173.5C275.54 176.404 275.679 177.441 275.679 177.441H277.473C277.473 177.441 277.906 172.77 278.863 172.287L278.751 170.7H278.101Z" fill="url(#paint8_linear_10_154)"/>
<path d="M269.119 179.596L270.176 187.653C270.245 188.169 270.502 188.638 270.894 188.961C271.286 189.285 271.784 189.438 272.282 189.389L293.807 187.279C294.108 187.251 294.399 187.15 294.655 186.984C294.912 186.818 295.127 186.591 295.285 186.323C295.522 185.918 295.615 185.439 295.549 184.97L294.531 177.612C294.462 177.11 294.213 176.653 293.835 176.333C293.457 176.013 292.976 175.853 292.49 175.885L270.922 177.292C270.567 177.313 270.225 177.436 269.934 177.648C269.637 177.862 269.404 178.157 269.26 178.501C269.117 178.846 269.068 179.224 269.119 179.596Z" fill="#B7DAFF"/>
<path d="M269.119 179.596L270.176 187.653C270.245 188.169 270.502 188.638 270.894 188.961C271.286 189.285 271.784 189.438 272.282 189.389L293.807 187.279C294.108 187.251 294.399 187.15 294.655 186.984C294.912 186.818 295.127 186.591 295.285 186.323C295.522 185.918 295.615 185.439 295.549 184.97L294.531 177.612C294.462 177.11 294.213 176.653 293.835 176.333C293.457 176.013 292.976 175.853 292.49 175.885L270.922 177.292C270.567 177.313 270.225 177.436 269.934 177.648C269.637 177.862 269.404 178.157 269.26 178.501C269.117 178.846 269.068 179.224 269.119 179.596Z" fill="url(#paint9_linear_10_154)"/>
<path d="M251.45 216.468L252.828 213.001L248.443 210.237L246.589 214.746C246.589 214.746 240.436 214.953 237.646 217.753L236.455 220.138H251.398L251.45 216.468Z" fill="#25233A"/>
<path d="M292.2 212.744L289.955 209.737L286.545 212.041L287.984 215.197L285.774 219.602C285.774 219.602 284.141 219.534 282.334 221.121C280.527 222.708 281.134 223.128 281.134 223.128H290.094L295.228 215.197C295.228 215.197 293.378 212.861 292.2 212.744Z" fill="#25233A"/>
<path d="M278.122 109.787C278.122 109.787 280.644 109.787 280.791 111.338L279.994 117.091L276.961 118.39L277.559 121.605L267.793 130.419L279.058 111.338C278.67 110.876 278.354 110.352 278.122 109.787Z" fill="#B7DAFF"/>
<path d="M268.812 111.807L270.38 110.405C270.426 111.113 270.351 111.825 270.159 112.506C269.851 113.358 268.387 126.375 268.638 128.967L266.844 119.684L268.387 116.938L267.789 114.968L268.812 111.807Z" fill="#B7DAFF"/>
<path d="M278.122 109.787C278.122 109.787 280.644 109.787 280.791 111.338L279.994 117.091L276.961 118.39L277.559 121.605L267.793 130.419L279.058 111.338C278.67 110.876 278.354 110.352 278.122 109.787Z" fill="url(#paint10_linear_10_154)"/>
<path d="M268.812 111.807L270.38 110.405C270.426 111.113 270.351 111.825 270.159 112.506C269.851 113.358 268.387 126.375 268.638 128.967L266.844 119.684L268.387 116.938L267.789 114.968L268.812 111.807Z" fill="url(#paint11_linear_10_154)"/>
<path d="M272.221 114.621L272.919 116.541L271.576 118.025L271.896 123.458L268.634 128.963L268.872 123.498L270.779 117.817L270.393 116.158L271.225 114.603L272.221 114.621Z" fill="#3F3D56"/>
<path d="M233.253 126.086C232.923 126.722 233.526 127.416 233.933 127.998C234.323 128.549 234.571 129.195 234.652 129.874C233.2 129.565 231.813 128.991 230.553 128.178C229.934 127.782 229.184 127.308 228.539 127.655C228.313 127.813 228.129 128.027 228.005 128.279C227.88 128.531 227.82 128.811 227.828 129.094C227.813 129.845 227.944 130.592 228.214 131.289C228.483 131.987 228.886 132.62 229.397 133.152C230.425 134.204 231.617 135.067 232.923 135.703C233.937 136.244 235.224 136.727 236.143 136.024C236.519 135.691 236.816 135.271 237.009 134.797C237.443 133.941 238.261 132.876 238.17 131.903C238.02 130.999 237.685 130.139 237.187 129.382C236.498 128.237 234.713 126.086 233.253 126.086Z" fill="url(#paint12_linear_10_154)"/>
<path d="M224.86 123.052L230.926 133.445C231.054 133.661 231.256 133.819 231.492 133.886C231.728 133.953 231.98 133.924 232.196 133.805L233.422 133.138C233.535 133.075 233.635 132.99 233.716 132.886C233.797 132.783 233.857 132.663 233.894 132.535C233.93 132.407 233.941 132.273 233.927 132.141C233.913 132.008 233.874 131.879 233.812 131.763L228.426 121.722C228.331 121.542 228.184 121.397 228.007 121.307C227.829 121.218 227.629 121.188 227.434 121.221L226.52 121.028C225.073 121.505 224.479 122.443 224.86 123.052Z" fill="#B7DAFF"/>
<path d="M224.86 123.052L230.926 133.445C231.054 133.661 231.256 133.819 231.492 133.886C231.728 133.953 231.98 133.924 232.196 133.805L233.422 133.138C233.535 133.075 233.635 132.99 233.716 132.886C233.797 132.783 233.857 132.663 233.894 132.535C233.93 132.407 233.941 132.273 233.927 132.141C233.913 132.008 233.874 131.879 233.812 131.763L228.426 121.722C228.331 121.542 228.184 121.397 228.007 121.307C227.829 121.218 227.629 121.188 227.434 121.221L226.52 121.028C225.073 121.505 224.479 122.443 224.86 123.052Z" fill="url(#paint13_linear_10_154)"/>
<path d="M226.043 122.488L232.139 132.858C232.267 133.077 232.47 133.237 232.706 133.305C232.943 133.373 233.196 133.344 233.413 133.224L234.635 132.552C234.748 132.489 234.849 132.404 234.93 132.301C235.012 132.197 235.072 132.078 235.109 131.95C235.145 131.822 235.156 131.687 235.142 131.554C235.128 131.422 235.088 131.293 235.025 131.177L229.626 121.154C229.53 120.975 229.383 120.831 229.206 120.742C229.028 120.652 228.829 120.621 228.634 120.653L226.697 120.978C226.543 121.006 226.397 121.073 226.273 121.173C226.149 121.273 226.05 121.404 225.986 121.553C225.921 121.702 225.893 121.865 225.903 122.028C225.913 122.191 225.961 122.349 226.043 122.488Z" fill="white"/>
<path d="M227.001 122.488L229.882 121.6L234.722 130.627L232.248 131.587L227.001 122.488Z" fill="#B7DAFF"/>
<path d="M68.8818 226.387C67.3541 225.009 65.9871 223.449 64.8091 221.739L69.4494 218.529C70.3752 219.832 71.4358 221.024 72.6123 222.086L68.8818 226.387Z" fill="#B7DAFF"/>
<path d="M105.922 239.26C103.704 239.26 101.507 239.165 99.3886 238.976L99.8695 233.2C103.242 233.492 106.629 233.543 110.008 233.353L110.294 239.142C108.821 239.224 107.348 239.26 105.922 239.26ZM121.018 237.948L120.225 232.213C123.258 231.762 126.646 231.234 130.623 230.612L131.446 236.347C127.408 236.978 124.09 237.488 121.018 237.948ZM88.5481 237.046C84.9542 236.078 81.4686 234.718 78.1495 232.988L80.6712 227.821C83.6358 229.372 86.7495 230.593 89.9606 231.464L88.5481 237.046ZM141.888 234.706L141.052 228.975L142.096 228.809L151.472 227.334L152.3 233.065L142.933 234.539L141.888 234.706ZM162.72 231.446L161.91 225.711C165.684 225.134 169.102 224.624 172.361 224.146L173.132 229.886C169.891 230.36 166.481 230.869 162.72 231.446ZM183.548 228.421L182.833 222.672C186.546 222.172 190.077 221.721 193.335 221.32L193.968 227.077C190.74 227.474 187.23 227.92 183.548 228.421ZM204.384 225.982L203.89 220.206C207.789 219.845 211.368 219.584 214.522 219.43L214.782 225.224C211.702 225.368 208.205 225.625 204.384 225.982Z" fill="#B7DAFF"/>
<path d="M229.964 225.684C228.32 225.401 226.66 225.223 224.995 225.152L225.272 219.363C227.174 219.446 229.07 219.653 230.948 219.98L229.964 225.684Z" fill="#B7DAFF"/>
<path d="M264.444 93.7678C264.503 92.7919 264.886 91.8675 265.527 91.1528C267.377 88.9706 270.506 88.5783 273.292 88.8128C276.078 89.0472 278.894 89.7596 281.641 89.205C282.126 89.1103 282.772 89.0517 282.971 89.5206C283.265 90.215 282.182 90.6027 281.749 91.2114L283.3 91.3917C283.156 92.0818 282.766 92.6894 282.208 93.0915L282.915 93.4207L281.675 95.675L282.295 96.1665C280.818 96.6173 279.964 98.1954 279.396 99.6833C278.829 101.171 278.318 102.808 277.078 103.741C276.95 102.937 276.663 102.169 276.233 101.487C276.463 101.389 276.666 101.234 276.824 101.034C276.982 100.835 277.089 100.598 277.137 100.344C277.185 100.09 277.171 99.8284 277.097 99.5818C277.022 99.3352 276.89 99.1117 276.713 98.9315C276.535 98.7513 276.316 98.62 276.078 98.5495C275.839 98.4791 275.587 98.4716 275.344 98.5279C275.102 98.5842 274.877 98.7024 274.69 98.8718C274.502 99.0412 274.358 99.2566 274.271 99.4984C273.365 97.8843 272.104 96.4054 270.48 95.6344C269.24 95.0555 267.839 94.9736 266.545 95.4045C265.155 95.8914 264.383 95.6976 264.444 93.7678Z" fill="#3F3D56"/>
</g>
<defs>
<linearGradient id="paint0_linear_10_154" x1="254.007" y1="128.39" x2="297.625" y2="144.594" gradientUnits="userSpaceOnUse">
<stop stop-opacity="0"/>
<stop offset="0.99"/>
</linearGradient>
<linearGradient id="paint1_linear_10_154" x1="176.693" y1="201.125" x2="177.81" y2="320.709" gradientUnits="userSpaceOnUse">
<stop stop-opacity="0"/>
<stop offset="0.99"/>
</linearGradient>
<linearGradient id="paint2_linear_10_154" x1="275.974" y1="192.897" x2="313.399" y2="206.218" gradientUnits="userSpaceOnUse">
<stop stop-opacity="0"/>
<stop offset="0.99"/>
</linearGradient>
<linearGradient id="paint3_linear_10_154" x1="266.056" y1="182.053" x2="283.351" y2="235.764" gradientUnits="userSpaceOnUse">
<stop stop-opacity="0"/>
<stop offset="0.99"/>
</linearGradient>
<linearGradient id="paint4_linear_10_154" x1="272.906" y1="145.05" x2="317.054" y2="145.979" gradientUnits="userSpaceOnUse">
<stop stop-opacity="0"/>
<stop offset="0.99"/>
</linearGradient>
<linearGradient id="paint5_linear_10_154" x1="279.05" y1="103.471" x2="264.739" y2="103.471" gradientUnits="userSpaceOnUse">
<stop stop-color="#ECC4D7"/>
<stop offset="0.42" stop-color="#EFD4D1"/>
<stop offset="1" stop-color="#F2EAC9"/>
</linearGradient>
<linearGradient id="paint6_linear_10_154" x1="285.826" y1="169.253" x2="277.988" y2="169.253" gradientUnits="userSpaceOnUse">
<stop stop-color="#ECC4D7"/>
<stop offset="0.42" stop-color="#EFD4D1"/>
<stop offset="1" stop-color="#F2EAC9"/>
</linearGradient>
<linearGradient id="paint7_linear_10_154" x1="287.13" y1="174.325" x2="280.657" y2="173.14" gradientUnits="userSpaceOnUse">
<stop stop-opacity="0"/>
<stop offset="0.99"/>
</linearGradient>
<linearGradient id="paint8_linear_10_154" x1="276.888" y1="174.258" x2="281.1" y2="173.405" gradientUnits="userSpaceOnUse">
<stop offset="0.19" stop-opacity="0"/>
<stop offset="0.99"/>
</linearGradient>
<linearGradient id="paint9_linear_10_154" x1="280.12" y1="180.552" x2="306.734" y2="203.588" gradientUnits="userSpaceOnUse">
<stop stop-opacity="0"/>
<stop offset="0.99"/>
</linearGradient>
<linearGradient id="paint10_linear_10_154" x1="275.774" y1="112.204" x2="266.562" y2="164.384" gradientUnits="userSpaceOnUse">
<stop stop-opacity="0"/>
<stop offset="0.99"/>
</linearGradient>
<linearGradient id="paint11_linear_10_154" x1="269.886" y1="111.167" x2="260.674" y2="163.343" gradientUnits="userSpaceOnUse">
<stop stop-opacity="0"/>
<stop offset="0.99"/>
</linearGradient>
<linearGradient id="paint12_linear_10_154" x1="227.82" y1="131.226" x2="238.17" y2="131.226" gradientUnits="userSpaceOnUse">
<stop stop-color="#ECC4D7"/>
<stop offset="0.42" stop-color="#EFD4D1"/>
<stop offset="1" stop-color="#F2EAC9"/>
</linearGradient>
<linearGradient id="paint13_linear_10_154" x1="226.65" y1="126.781" x2="238.501" y2="129.616" gradientUnits="userSpaceOnUse">
<stop stop-opacity="0"/>
<stop offset="0.99"/>
</linearGradient>
<clipPath id="clip0_10_154">
<rect width="357" height="265" fill="white"/>
</clipPath>
</defs>
</svg>
