<svg width="210" height="148" viewBox="0 0 210 148" fill="none" xmlns="http://www.w3.org/2000/svg">
<g clip-path="url(#clip0_734_15)">
<path d="M58.556 148H43.936V54.4321H58.556V148Z" fill="#fff"/>
<path d="M15 67.7402C15 73.3402 16.1433 77.7969 18.43 81.1102C20.7633 84.4235 24.4267 86.0802 29.42 86.0802C34.46 86.0802 38.1233 84.4235 40.41 81.1102C42.6967 77.7969 43.84 73.3402 43.84 67.7402V39.5302H58.68V69.6302C58.68 75.4169 57.5367 80.5035 55.25 84.8902C52.9633 89.2302 49.65 92.6135 45.31 95.0402C40.97 97.4669 35.6733 98.6802 29.42 98.6802C23.2133 98.6802 17.94 97.4669 13.6 95.0402C9.25998 92.6135 5.94665 89.2302 3.65998 84.8902C1.37331 80.5035 0.22998 75.4169 0.22998 69.6302V39.5302H15V67.7402ZM93.1812 98.6802C87.1613 98.6802 81.7946 97.3735 77.0812 94.7602C72.4146 92.1002 68.7512 88.5069 66.0912 83.9802C63.4312 79.4069 62.1012 74.2269 62.1012 68.4402C62.1012 62.6535 63.4312 57.4502 66.0912 52.8302C68.7512 48.2102 72.4146 44.5702 77.0812 41.9102C81.7946 39.2035 87.1613 37.8502 93.1812 37.8502C99.2012 37.8502 104.521 39.2035 109.141 41.9102C113.761 44.5702 117.378 48.2102 119.991 52.8302C122.651 57.4502 123.981 62.6535 123.981 68.4402C123.981 74.2269 122.651 79.4069 119.991 83.9802C117.378 88.5069 113.761 92.1002 109.141 94.7602C104.521 97.3735 99.2012 98.6802 93.1812 98.6802ZM93.1812 86.0802C96.5413 86.0802 99.4579 85.3102 101.931 83.7702C104.405 82.2302 106.318 80.1302 107.671 77.4702C109.025 74.8102 109.701 71.7769 109.701 68.3702C109.701 64.9635 109.025 61.9302 107.671 59.2702C106.318 56.5635 104.405 54.4169 101.931 52.8302C99.4579 51.2435 96.5413 50.4502 93.1812 50.4502C89.8212 50.4502 86.8812 51.2435 84.3613 52.8302C81.8879 54.4169 79.9512 56.5635 78.5512 59.2702C77.1979 61.9302 76.5212 64.9635 76.5212 68.3702C76.5212 71.7769 77.1979 74.8102 78.5512 77.4702C79.9512 80.1302 81.8879 82.2302 84.3613 83.7702C86.8812 85.3102 89.8212 86.0802 93.1812 86.0802ZM143.492 97.0002H128.442V0.680176H143.492V97.0002ZM165.484 67.7402C165.484 73.3402 166.627 77.7969 168.914 81.1102C171.247 84.4235 174.91 86.0802 179.904 86.0802C184.944 86.0802 188.607 84.4235 190.894 81.1102C193.18 77.7969 194.324 73.3402 194.324 67.7402V39.5302H209.164V69.6302C209.164 75.4169 208.02 80.5035 205.734 84.8902C203.447 89.2302 200.134 92.6135 195.794 95.0402C191.454 97.4669 186.157 98.6802 179.904 98.6802C173.697 98.6802 168.424 97.4669 164.084 95.0402C159.744 92.6135 156.43 89.2302 154.144 84.8902C151.857 80.5035 150.714 75.4169 150.714 69.6302V39.5302H165.484V67.7402Z" fill="white"/>
</g>
<defs>
<clipPath id="clip0_734_15">
<rect width="210" height="148" fill="white"/>
</clipPath>
</defs>
</svg>
